<mxfile host="app.diagrams.net" modified="2023-09-25T08:13:15.401Z" agent="Mozilla/5.0 (Macintosh; Intel Mac OS X 10_15_7) AppleWebKit/537.36 (KHTML, like Gecko) Chrome/115.0.0.0 Safari/537.36" etag="I7ws5F0I4FNbaX3DWze1" version="21.8.1" type="github">
  <diagram name="Page-1" id="44kL-8lOii-qEcLcEZFb">
    <mxGraphModel dx="2046" dy="1810" grid="1" gridSize="10" guides="1" tooltips="1" connect="1" arrows="1" fold="1" page="1" pageScale="1" pageWidth="850" pageHeight="1100" math="0" shadow="0">
      <root>
        <mxCell id="0" />
        <mxCell id="1" parent="0" />
        <mxCell id="MbSn2v3Lw9Q6L9Wrss_j-2" value="" style="whiteSpace=wrap;html=1;aspect=fixed;" parent="1" vertex="1">
          <mxGeometry x="-430" y="-100" width="920" height="920" as="geometry" />
        </mxCell>
        <mxCell id="MbSn2v3Lw9Q6L9Wrss_j-1" value="User" style="shape=umlActor;verticalLabelPosition=bottom;verticalAlign=top;html=1;outlineConnect=0;" parent="1" vertex="1">
          <mxGeometry x="-580" y="110" width="30" height="60" as="geometry" />
        </mxCell>
        <mxCell id="8dtzbFjmas_uAEnM9B7v-1" style="edgeStyle=orthogonalEdgeStyle;rounded=0;orthogonalLoop=1;jettySize=auto;html=1;exitX=0.5;exitY=1;exitDx=0;exitDy=0;" parent="1" source="MbSn2v3Lw9Q6L9Wrss_j-2" target="MbSn2v3Lw9Q6L9Wrss_j-2" edge="1">
          <mxGeometry relative="1" as="geometry" />
        </mxCell>
        <mxCell id="9cY2Qua1KASMOuqnOolk-1" value="Registration" style="ellipse;whiteSpace=wrap;html=1;" vertex="1" parent="1">
          <mxGeometry x="-350" y="40" width="120" height="80" as="geometry" />
        </mxCell>
        <mxCell id="9cY2Qua1KASMOuqnOolk-13" value="Login" style="ellipse;whiteSpace=wrap;html=1;" vertex="1" parent="1">
          <mxGeometry x="-350" y="180" width="120" height="80" as="geometry" />
        </mxCell>
        <mxCell id="9cY2Qua1KASMOuqnOolk-14" value="Check ED capacity" style="ellipse;whiteSpace=wrap;html=1;" vertex="1" parent="1">
          <mxGeometry x="-350" y="-70" width="120" height="80" as="geometry" />
        </mxCell>
        <mxCell id="9cY2Qua1KASMOuqnOolk-17" value="Summary triage result site" style="ellipse;whiteSpace=wrap;html=1;" vertex="1" parent="1">
          <mxGeometry x="-350" y="330" width="120" height="80" as="geometry" />
        </mxCell>
        <mxCell id="9cY2Qua1KASMOuqnOolk-18" value="Status Notification" style="ellipse;whiteSpace=wrap;html=1;" vertex="1" parent="1">
          <mxGeometry x="-140" y="320" width="120" height="80" as="geometry" />
        </mxCell>
        <mxCell id="9cY2Qua1KASMOuqnOolk-21" value="System search for a spot in a queue in the nearest ED" style="ellipse;whiteSpace=wrap;html=1;" vertex="1" parent="1">
          <mxGeometry x="130" y="100" width="120" height="80" as="geometry" />
        </mxCell>
        <mxCell id="9cY2Qua1KASMOuqnOolk-34" value="System inform user of nearby pharmacy" style="rounded=1;whiteSpace=wrap;html=1;" vertex="1" parent="1">
          <mxGeometry x="140" y="330" width="120" height="60" as="geometry" />
        </mxCell>
        <mxCell id="9cY2Qua1KASMOuqnOolk-35" value="System provide number to contact a nurse" style="rounded=1;whiteSpace=wrap;html=1;" vertex="1" parent="1">
          <mxGeometry x="130" y="510" width="120" height="60" as="geometry" />
        </mxCell>
        <mxCell id="9cY2Qua1KASMOuqnOolk-41" value="System inform user of nearby clinic" style="rounded=1;whiteSpace=wrap;html=1;" vertex="1" parent="1">
          <mxGeometry x="130" y="710" width="120" height="60" as="geometry" />
        </mxCell>
        <mxCell id="9cY2Qua1KASMOuqnOolk-43" value="System notify user when a spot is available." style="rounded=1;whiteSpace=wrap;html=1;" vertex="1" parent="1">
          <mxGeometry x="340" y="110" width="120" height="60" as="geometry" />
        </mxCell>
        <mxCell id="9cY2Qua1KASMOuqnOolk-59" value="&lt;font style=&quot;font-size: 18px;&quot;&gt;MisterEd System&lt;/font&gt;" style="text;html=1;strokeColor=none;fillColor=none;align=center;verticalAlign=middle;whiteSpace=wrap;rounded=0;" vertex="1" parent="1">
          <mxGeometry x="-90" y="-150" width="210" height="40" as="geometry" />
        </mxCell>
        <mxCell id="9cY2Qua1KASMOuqnOolk-82" value="System determine which action user should take" style="ellipse;whiteSpace=wrap;html=1;" vertex="1" parent="1">
          <mxGeometry x="-350" y="690" width="120" height="80" as="geometry" />
        </mxCell>
        <mxCell id="9cY2Qua1KASMOuqnOolk-84" value="" style="endArrow=classic;html=1;rounded=0;exitX=0.5;exitY=1;exitDx=0;exitDy=0;entryX=0.5;entryY=0;entryDx=0;entryDy=0;" edge="1" parent="1" source="9cY2Qua1KASMOuqnOolk-17" target="9cY2Qua1KASMOuqnOolk-82">
          <mxGeometry width="50" height="50" relative="1" as="geometry">
            <mxPoint x="-270" y="390" as="sourcePoint" />
            <mxPoint x="-220" y="340" as="targetPoint" />
          </mxGeometry>
        </mxCell>
        <mxCell id="9cY2Qua1KASMOuqnOolk-85" value="&amp;lt;include&amp;gt;" style="edgeLabel;html=1;align=center;verticalAlign=middle;resizable=0;points=[];" vertex="1" connectable="0" parent="9cY2Qua1KASMOuqnOolk-84">
          <mxGeometry x="-0.1286" y="2" relative="1" as="geometry">
            <mxPoint as="offset" />
          </mxGeometry>
        </mxCell>
        <mxCell id="9cY2Qua1KASMOuqnOolk-86" value="&amp;lt;include&amp;gt;" style="endArrow=classic;html=1;rounded=0;exitX=1;exitY=0.5;exitDx=0;exitDy=0;entryX=0.5;entryY=1;entryDx=0;entryDy=0;" edge="1" parent="1" source="9cY2Qua1KASMOuqnOolk-82" target="9cY2Qua1KASMOuqnOolk-18">
          <mxGeometry width="50" height="50" relative="1" as="geometry">
            <mxPoint x="-220" y="540" as="sourcePoint" />
            <mxPoint x="-170" y="490" as="targetPoint" />
            <Array as="points">
              <mxPoint x="-80" y="730" />
            </Array>
          </mxGeometry>
        </mxCell>
        <mxCell id="9cY2Qua1KASMOuqnOolk-87" value="" style="endArrow=classic;html=1;rounded=0;exitX=1;exitY=0.5;exitDx=0;exitDy=0;entryX=0;entryY=0.5;entryDx=0;entryDy=0;" edge="1" parent="1" source="9cY2Qua1KASMOuqnOolk-21" target="9cY2Qua1KASMOuqnOolk-43">
          <mxGeometry width="50" height="50" relative="1" as="geometry">
            <mxPoint x="190" y="230" as="sourcePoint" />
            <mxPoint x="240" y="180" as="targetPoint" />
          </mxGeometry>
        </mxCell>
        <mxCell id="9cY2Qua1KASMOuqnOolk-88" value="&amp;lt;include&amp;gt;" style="edgeLabel;html=1;align=center;verticalAlign=middle;resizable=0;points=[];" vertex="1" connectable="0" parent="9cY2Qua1KASMOuqnOolk-87">
          <mxGeometry x="-0.15" relative="1" as="geometry">
            <mxPoint as="offset" />
          </mxGeometry>
        </mxCell>
        <mxCell id="9cY2Qua1KASMOuqnOolk-89" value="" style="endArrow=classic;html=1;rounded=0;dashed=1;exitX=1;exitY=0.5;exitDx=0;exitDy=0;entryX=0;entryY=0.5;entryDx=0;entryDy=0;" edge="1" parent="1" source="9cY2Qua1KASMOuqnOolk-18" target="9cY2Qua1KASMOuqnOolk-21">
          <mxGeometry width="50" height="50" relative="1" as="geometry">
            <mxPoint y="290" as="sourcePoint" />
            <mxPoint x="40" y="280" as="targetPoint" />
            <Array as="points">
              <mxPoint x="20" y="360" />
              <mxPoint x="20" y="140" />
            </Array>
          </mxGeometry>
        </mxCell>
        <mxCell id="9cY2Qua1KASMOuqnOolk-102" value="&amp;lt;extend&amp;gt;" style="edgeLabel;html=1;align=center;verticalAlign=middle;resizable=0;points=[];" vertex="1" connectable="0" parent="9cY2Qua1KASMOuqnOolk-89">
          <mxGeometry x="0.6686" y="1" relative="1" as="geometry">
            <mxPoint as="offset" />
          </mxGeometry>
        </mxCell>
        <mxCell id="9cY2Qua1KASMOuqnOolk-93" value="" style="endArrow=classic;html=1;rounded=0;entryX=0;entryY=0.5;entryDx=0;entryDy=0;dashed=1;" edge="1" parent="1" target="9cY2Qua1KASMOuqnOolk-34">
          <mxGeometry width="50" height="50" relative="1" as="geometry">
            <mxPoint x="20" y="360" as="sourcePoint" />
            <mxPoint x="-60" y="210" as="targetPoint" />
          </mxGeometry>
        </mxCell>
        <mxCell id="9cY2Qua1KASMOuqnOolk-94" value="&amp;lt;extend&amp;gt;" style="edgeLabel;html=1;align=center;verticalAlign=middle;resizable=0;points=[];" vertex="1" connectable="0" parent="9cY2Qua1KASMOuqnOolk-93">
          <mxGeometry x="-0.1636" y="4" relative="1" as="geometry">
            <mxPoint as="offset" />
          </mxGeometry>
        </mxCell>
        <mxCell id="9cY2Qua1KASMOuqnOolk-96" value="" style="endArrow=classic;html=1;rounded=0;entryX=0;entryY=0.5;entryDx=0;entryDy=0;dashed=1;" edge="1" parent="1" target="9cY2Qua1KASMOuqnOolk-35">
          <mxGeometry width="50" height="50" relative="1" as="geometry">
            <mxPoint x="20" y="340" as="sourcePoint" />
            <mxPoint x="100" y="400" as="targetPoint" />
            <Array as="points">
              <mxPoint x="20" y="540" />
            </Array>
          </mxGeometry>
        </mxCell>
        <mxCell id="9cY2Qua1KASMOuqnOolk-101" value="&amp;lt;extend&amp;gt;" style="edgeLabel;html=1;align=center;verticalAlign=middle;resizable=0;points=[];" vertex="1" connectable="0" parent="9cY2Qua1KASMOuqnOolk-96">
          <mxGeometry x="0.5935" y="2" relative="1" as="geometry">
            <mxPoint as="offset" />
          </mxGeometry>
        </mxCell>
        <mxCell id="9cY2Qua1KASMOuqnOolk-98" value="" style="endArrow=classic;html=1;rounded=0;entryX=0;entryY=0.5;entryDx=0;entryDy=0;dashed=1;" edge="1" parent="1" target="9cY2Qua1KASMOuqnOolk-41">
          <mxGeometry width="50" height="50" relative="1" as="geometry">
            <mxPoint x="20" y="540" as="sourcePoint" />
            <mxPoint x="100" y="710" as="targetPoint" />
            <Array as="points">
              <mxPoint x="20" y="740" />
            </Array>
          </mxGeometry>
        </mxCell>
        <mxCell id="9cY2Qua1KASMOuqnOolk-100" value="&amp;lt;extend&amp;gt;" style="edgeLabel;html=1;align=center;verticalAlign=middle;resizable=0;points=[];" vertex="1" connectable="0" parent="9cY2Qua1KASMOuqnOolk-98">
          <mxGeometry x="0.6545" y="-2" relative="1" as="geometry">
            <mxPoint as="offset" />
          </mxGeometry>
        </mxCell>
        <mxCell id="9cY2Qua1KASMOuqnOolk-103" value="" style="endArrow=classic;html=1;rounded=0;entryX=0.5;entryY=0;entryDx=0;entryDy=0;exitX=0.5;exitY=1;exitDx=0;exitDy=0;" edge="1" parent="1" source="9cY2Qua1KASMOuqnOolk-13" target="9cY2Qua1KASMOuqnOolk-17">
          <mxGeometry width="50" height="50" relative="1" as="geometry">
            <mxPoint x="-260" y="370" as="sourcePoint" />
            <mxPoint x="-250" y="460" as="targetPoint" />
          </mxGeometry>
        </mxCell>
        <mxCell id="9cY2Qua1KASMOuqnOolk-104" value="&amp;lt;include&amp;gt;" style="edgeLabel;html=1;align=center;verticalAlign=middle;resizable=0;points=[];" vertex="1" connectable="0" parent="9cY2Qua1KASMOuqnOolk-103">
          <mxGeometry x="0.1333" y="1" relative="1" as="geometry">
            <mxPoint as="offset" />
          </mxGeometry>
        </mxCell>
        <mxCell id="9cY2Qua1KASMOuqnOolk-105" value="" style="endArrow=none;html=1;rounded=0;entryX=0;entryY=0.5;entryDx=0;entryDy=0;exitX=0.5;exitY=0.5;exitDx=0;exitDy=0;exitPerimeter=0;" edge="1" parent="1" source="MbSn2v3Lw9Q6L9Wrss_j-1" target="9cY2Qua1KASMOuqnOolk-13">
          <mxGeometry width="50" height="50" relative="1" as="geometry">
            <mxPoint x="-560" y="140" as="sourcePoint" />
            <mxPoint x="-430" y="110" as="targetPoint" />
          </mxGeometry>
        </mxCell>
        <mxCell id="9cY2Qua1KASMOuqnOolk-106" value="" style="endArrow=none;html=1;rounded=0;exitX=0.5;exitY=0.5;exitDx=0;exitDy=0;exitPerimeter=0;entryX=0;entryY=0.5;entryDx=0;entryDy=0;" edge="1" parent="1" source="MbSn2v3Lw9Q6L9Wrss_j-1" target="9cY2Qua1KASMOuqnOolk-1">
          <mxGeometry width="50" height="50" relative="1" as="geometry">
            <mxPoint x="-475" y="70" as="sourcePoint" />
            <mxPoint x="-425" y="20" as="targetPoint" />
          </mxGeometry>
        </mxCell>
        <mxCell id="9cY2Qua1KASMOuqnOolk-107" value="" style="endArrow=none;html=1;rounded=0;exitX=0;exitY=0.5;exitDx=0;exitDy=0;entryX=0.5;entryY=0.5;entryDx=0;entryDy=0;entryPerimeter=0;" edge="1" parent="1" source="9cY2Qua1KASMOuqnOolk-14" target="MbSn2v3Lw9Q6L9Wrss_j-1">
          <mxGeometry width="50" height="50" relative="1" as="geometry">
            <mxPoint x="-170" y="600" as="sourcePoint" />
            <mxPoint x="-120" y="550" as="targetPoint" />
          </mxGeometry>
        </mxCell>
        <mxCell id="9cY2Qua1KASMOuqnOolk-108" value="" style="endArrow=classic;html=1;rounded=0;exitX=0.5;exitY=1;exitDx=0;exitDy=0;entryX=0.5;entryY=0;entryDx=0;entryDy=0;" edge="1" parent="1" source="9cY2Qua1KASMOuqnOolk-1" target="9cY2Qua1KASMOuqnOolk-13">
          <mxGeometry width="50" height="50" relative="1" as="geometry">
            <mxPoint x="-170" y="350" as="sourcePoint" />
            <mxPoint x="-120" y="300" as="targetPoint" />
          </mxGeometry>
        </mxCell>
        <mxCell id="9cY2Qua1KASMOuqnOolk-109" value="&amp;lt;extend&amp;gt;" style="edgeLabel;html=1;align=center;verticalAlign=middle;resizable=0;points=[];" vertex="1" connectable="0" parent="9cY2Qua1KASMOuqnOolk-108">
          <mxGeometry x="-0.0444" relative="1" as="geometry">
            <mxPoint as="offset" />
          </mxGeometry>
        </mxCell>
        <mxCell id="9cY2Qua1KASMOuqnOolk-110" value="" style="endArrow=classic;html=1;rounded=0;entryX=1;entryY=0.5;entryDx=0;entryDy=0;exitX=0.5;exitY=0;exitDx=0;exitDy=0;" edge="1" parent="1" source="9cY2Qua1KASMOuqnOolk-43" target="9cY2Qua1KASMOuqnOolk-14">
          <mxGeometry width="50" height="50" relative="1" as="geometry">
            <mxPoint x="-170" y="130" as="sourcePoint" />
            <mxPoint x="-120" y="80" as="targetPoint" />
            <Array as="points">
              <mxPoint x="400" />
            </Array>
          </mxGeometry>
        </mxCell>
        <mxCell id="9cY2Qua1KASMOuqnOolk-111" value="&amp;lt;include&amp;gt;" style="edgeLabel;html=1;align=center;verticalAlign=middle;resizable=0;points=[];" vertex="1" connectable="0" parent="9cY2Qua1KASMOuqnOolk-110">
          <mxGeometry x="0.2324" relative="1" as="geometry">
            <mxPoint as="offset" />
          </mxGeometry>
        </mxCell>
      </root>
    </mxGraphModel>
  </diagram>
</mxfile>
